<svg xmlns="http://www.w3.org/2000/svg" width="24" height="24" fill="none" viewBox="0 0 24 24" id="whatsapp-status">
  <path fill="#000" fill-rule="evenodd" d="M12 3.75C7.44367 3.75 3.75002 7.44365 3.75002 12C3.75002 13.6246 4.21885 15.1374 5.0283 16.4132C5.1491 16.6036 5.17783 16.8383 5.10652 17.0522L4.18587 19.8141L6.94782 18.8935C7.16174 18.8222 7.39639 18.8509 7.58679 18.9717C8.86259 19.7812 10.3754 20.25 12 20.25C13.3185 20.25 14.5627 19.9413 15.6662 19.3928C16.0372 19.2085 16.4873 19.3598 16.6717 19.7307C16.856 20.1016 16.7047 20.5518 16.3338 20.7361C15.0274 21.3853 13.5552 21.75 12 21.75C10.2118 21.75 8.53426 21.268 7.09231 20.4265L3.23719 21.7115C2.96769 21.8013 2.67056 21.7312 2.46969 21.5303C2.26882 21.3295 2.19867 21.0323 2.28851 20.7628L3.57355 16.9077C2.73207 15.4658 2.25002 13.7882 2.25002 12C2.25002 6.61522 6.61524 2.25 12 2.25C17.3848 2.25 21.75 6.61522 21.75 12C21.75 13.5552 21.3853 15.0274 20.7361 16.3338C20.5518 16.7047 20.1017 16.856 19.7307 16.6716C19.3598 16.4873 19.2085 16.0372 19.3929 15.6662C19.9413 14.5627 20.25 13.3185 20.25 12C20.25 7.44365 16.5564 3.75 12 3.75Z" clip-rule="evenodd"></path>
  <path fill="#000" fill-rule="evenodd" d="M6.44484 10.5122C6.69711 9.56721 7.1942 8.67396 7.93403 7.93414C8.67385 7.19431 9.5671 6.69722 10.5121 6.44495C10.9123 6.33811 11.3234 6.57593 11.4302 6.97613C11.537 7.37633 11.2992 7.78736 10.899 7.8942C10.202 8.08026 9.54305 8.44644 8.99469 8.9948C8.44633 9.54315 8.08016 10.2021 7.89409 10.8991C7.78725 11.2993 7.37622 11.5371 6.97602 11.4303C6.57582 11.3235 6.33801 10.9124 6.44484 10.5122ZM12.5696 6.97613C12.6764 6.57593 13.0875 6.33811 13.4877 6.44495C14.4327 6.69722 15.3259 7.19431 16.0658 7.93414C16.8056 8.67396 17.3027 9.56721 17.5549 10.5122C17.6618 10.9124 17.424 11.3235 17.0238 11.4303C16.6236 11.5371 16.2125 11.2993 16.1057 10.8991C15.9196 10.2021 15.5535 9.54315 15.0051 8.9948C14.4567 8.44644 13.7978 8.08026 13.1008 7.8942C12.7006 7.78736 12.4628 7.37633 12.5696 6.97613ZM6.97602 12.5697C7.37622 12.4629 7.78725 12.7007 7.89409 13.1009C8.08016 13.7979 8.44633 14.4568 8.99469 15.0052C9.54305 15.5536 10.202 15.9197 10.899 16.1058C11.2992 16.2126 11.537 16.6237 11.4302 17.0239C11.3234 17.4241 10.9123 17.6619 10.5121 17.5551C9.5671 17.3028 8.67385 16.8057 7.93403 16.0659C7.1942 15.326 6.69711 14.4328 6.44484 13.4878C6.33801 13.0876 6.57582 12.6765 6.97602 12.5697ZM12.5696 17.0239C12.4628 16.6237 12.7006 16.2126 13.1008 16.1058C13.7978 15.9197 14.4567 15.5536 15.0051 15.0052C15.5535 14.4568 15.9196 13.7979 16.1057 13.1009C16.2125 12.7007 16.6236 12.4629 17.0238 12.5697C17.424 12.6765 17.6618 13.0876 17.5549 13.4878C17.3027 14.4328 16.8056 15.326 16.0658 16.0659C15.3259 16.8057 14.4327 17.3028 13.4877 17.5551C13.0875 17.6619 12.6764 17.4241 12.5696 17.0239Z" clip-rule="evenodd"></path>
</svg>
